<?xml version="1.0" encoding="UTF-8"?>
<!DOCTYPE svg PUBLIC "-//W3C//DTD SVG 1.1//EN" "http://www.w3.org/Graphics/SVG/1.1/DTD/svg11.dtd">
<svg xmlns="http://www.w3.org/2000/svg" version="1.1" width="3797px" height="1369px" style="shape-rendering:geometricPrecision; text-rendering:geometricPrecision; image-rendering:optimizeQuality; fill-rule:evenodd; clip-rule:evenodd" xmlns:xlink="http://www.w3.org/1999/xlink">
<g><path style="opacity:0.957" fill="#447cde" d="M 875.5,5.5 C 888.875,5.1426 902.208,5.6426 915.5,7C 926.129,9.90195 928.129,15.5686 921.5,24C 919.043,25.5621 916.376,26.5621 913.5,27C 907.5,27.6667 901.5,27.6667 895.5,27C 863.619,22.1094 833.953,28.1094 806.5,45C 775.082,69.9239 764.915,101.757 776,140.5C 783.893,159.372 798.06,169.872 818.5,172C 834.062,173.305 849.396,171.971 864.5,168C 873.093,164.866 881.76,162.033 890.5,159.5C 899.298,160.582 900.798,164.582 895,171.5C 890.075,176.713 884.241,180.546 877.5,183C 850.233,189.8 822.566,193.134 794.5,193C 755.643,191.357 732.81,171.524 726,133.5C 722.497,92.6758 737.664,60.8425 771.5,38C 803.613,18.8083 838.28,7.97497 875.5,5.5 Z"/></g>
<g><path style="opacity:0.954" fill="#447cde" d="M 1049.5,8.5 C 1079.94,6.68185 1109.6,10.5152 1138.5,20C 1146.17,23.8252 1148.33,29.6585 1145,37.5C 1141.77,39.3498 1138.27,40.3498 1134.5,40.5C 1129.77,39.9902 1125.11,39.1568 1120.5,38C 1100.23,28.2935 1078.89,24.6268 1056.5,27C 1041.45,28.0995 1029.95,34.9329 1022,47.5C 1019.28,56.6645 1021.78,64.1645 1029.5,70C 1046.98,79.2402 1064.65,88.2402 1082.5,97C 1090.86,101.687 1098.36,107.52 1105,114.5C 1111.19,125.049 1110.86,135.383 1104,145.5C 1086.39,163.056 1065.22,173.889 1040.5,178C 1012.16,182.591 983.826,182.591 955.5,178C 945.11,174.084 942.777,167.417 948.5,158C 952.265,156.093 956.265,154.926 960.5,154.5C 976.003,159.033 991.836,161.7 1008,162.5C 1024.41,162.608 1039.57,158.442 1053.5,150C 1067.97,135.535 1066.63,122.868 1049.5,112C 1028.52,102.178 1007.86,91.845 987.5,81C 971.448,68.6846 969.281,54.1846 981,37.5C 991.173,26.8273 1003.34,19.3273 1017.5,15C 1028.15,12.0634 1038.82,9.89668 1049.5,8.5 Z"/></g>
<g><path style="opacity:0.969" fill="#447cde" d="M 640.5,58.5 C 646.279,57.708 651.446,59.0414 656,62.5C 655.916,114.913 659.416,167.08 666.5,219C 665.925,224.251 663.592,228.584 659.5,232C 650.874,238.543 641.208,241.21 630.5,240C 628.333,239.167 626.833,237.667 626,235.5C 620.577,184.526 615.41,133.526 610.5,82.5C 611.12,73.3674 615.787,67.2007 624.5,64C 629.979,62.2302 635.313,60.3969 640.5,58.5 Z"/></g>
<g><path style="opacity:0.965" fill="#447cde" d="M 525.5,105.5 C 530.078,104.969 533.911,106.302 537,109.5C 536.956,127.604 538.289,145.604 541,163.5C 545.748,196.992 552.748,229.992 562,262.5C 562.941,273.585 558.108,281.085 547.5,285C 541.003,287.295 534.336,287.961 527.5,287C 506.978,274.904 485.978,263.57 464.5,253C 440.259,242.295 416.092,231.462 392,220.5C 405.915,260.885 422.582,300.219 442,338.5C 442.651,346.707 439.818,353.541 433.5,359C 428.53,363.568 422.697,366.401 416,367.5C 413.113,367.097 410.779,365.764 409,363.5C 396.506,328.179 383.173,293.179 369,258.5C 363.448,245.728 357.115,233.395 350,221.5C 349.213,212.904 352.379,206.071 359.5,201C 365.833,196.667 372.167,192.333 378.5,188C 386.552,183.154 395.219,181.487 404.5,183C 432.712,195.772 460.712,209.105 488.5,223C 501.078,229.536 513.245,236.703 525,244.5C 515.384,206.367 506.218,168.033 497.5,129.5C 502.247,116.082 511.581,108.082 525.5,105.5 Z"/></g>
<g><path style="opacity:0.979" fill="#447cde" d="M 1710.5,209.5 C 1716.06,208.734 1719.39,211.067 1720.5,216.5C 1698.66,337.844 1677.16,459.177 1656,580.5C 1675.39,537.2 1704.56,502.033 1743.5,475C 1770.53,457.525 1799.53,452.858 1830.5,461C 1844.78,467.951 1854.95,478.784 1861,493.5C 1866.75,507.427 1869.25,521.927 1868.5,537C 1863.05,628.286 1821.38,697.286 1743.5,744C 1716.93,759.641 1688.27,768.141 1657.5,769.5C 1632.65,770.605 1610.65,763.438 1591.5,748C 1579.18,734.555 1574.34,718.722 1577,700.5C 1600.87,571.476 1624.87,442.476 1649,313.5C 1650.74,304.573 1651.91,295.573 1652.5,286.5C 1652.59,279.776 1651.09,273.443 1648,267.5C 1642.26,262.487 1635.76,261.321 1628.5,264C 1619.82,266.757 1611.32,269.924 1603,273.5C 1598.76,272.06 1597.6,269.226 1599.5,265C 1636.59,246.454 1673.59,227.954 1710.5,209.5 Z M 1763.5,502.5 C 1781.54,502.045 1793.38,510.378 1799,527.5C 1802.97,540.562 1804.3,553.895 1803,567.5C 1799.23,600.901 1791.23,633.234 1779,664.5C 1767.52,692.008 1750.35,715.175 1727.5,734C 1708.55,747.904 1687.88,751.237 1665.5,744C 1640.83,731.157 1631.33,710.991 1637,683.5C 1644.62,641.314 1658.95,601.647 1680,564.5C 1691.69,544.471 1707.19,527.971 1726.5,515C 1738.06,508.092 1750.39,503.925 1763.5,502.5 Z"/></g>
<g><path style="opacity:0.965" fill="#447cde" d="M 278.5,267.5 C 282.584,267.043 286.417,267.71 290,269.5C 309.916,317.667 333.25,364 360,408.5C 361.104,414.226 360.104,419.56 357,424.5C 352.458,430.71 346.958,435.876 340.5,440C 336.146,442.323 332.146,441.823 328.5,438.5C 303.466,393.961 278.633,349.294 254,304.5C 251.849,298.219 252.515,292.219 256,286.5C 260.167,281 265,276.167 270.5,272C 273.099,270.205 275.766,268.705 278.5,267.5 Z"/></g>
<g><path style="opacity:0.326" fill="#204992" d="M 781.5,281.5 C 796.528,280.135 811.528,280.469 826.5,282.5C 811.506,281.945 796.506,281.611 781.5,281.5 Z"/></g>
<g><path style="opacity:0.983" fill="#1e468d" d="M 766.5,281.5 C 766.082,282.222 765.416,282.722 764.5,283C 783.158,283.079 801.158,286.412 818.5,293C 829.986,298.324 838.653,306.49 844.5,317.5C 780.589,327.359 718.256,343.359 657.5,365.5C 661.132,358.582 662.632,351.248 662,343.5C 659.002,336.067 653.502,331.567 645.5,330C 627.619,328.719 610.619,332.052 594.5,340C 580.819,348 568.486,357.667 557.5,369C 538.197,383.987 516.864,395.32 493.5,403C 489.5,403.667 485.5,403.667 481.5,403C 480.426,402.261 479.759,401.261 479.5,400C 480.789,397.259 482.455,394.759 484.5,392.5C 484.043,391.702 483.376,391.369 482.5,391.5C 497.87,377.969 514.536,366.136 532.5,356C 595.113,321.017 661.779,297.351 732.5,285C 743.778,283.239 755.111,282.072 766.5,281.5 Z"/></g>
<g><path style="opacity:0.997" fill="#437bdd" d="M 766.5,281.5 C 771.5,281.5 776.5,281.5 781.5,281.5C 796.506,281.611 811.506,281.945 826.5,282.5C 834.716,282.323 842.716,282.99 850.5,284.5C 857.576,286.415 864.909,287.415 872.5,287.5C 874.735,287.205 876.735,287.539 878.5,288.5C 886.533,291.04 894.866,292.707 903.5,293.5C 906.171,295.118 909.171,295.785 912.5,295.5C 925.363,298.548 938.029,302.215 950.5,306.5C 952.792,308.267 955.458,309.267 958.5,309.5C 963.537,312.071 968.871,314.071 974.5,315.5C 1023.92,331.626 1043.59,365.292 1033.5,416.5C 1023.17,451.162 1007,482.829 985,511.5C 953.555,551.787 919.055,589.453 881.5,624.5C 773.843,720.847 656.51,803.68 529.5,873C 491.351,893.41 452.017,911.077 411.5,926C 392.387,932.789 372.72,936.956 352.5,938.5C 343.501,938.668 335.168,936.501 327.5,932C 325.106,930.048 323.606,927.548 323,924.5C 303.424,862.225 296.257,798.558 301.5,733.5C 301.522,730.41 302.188,727.743 303.5,725.5C 303.239,733.082 306.906,737.582 314.5,739C 322.5,739.667 330.5,739.667 338.5,739C 368.811,732.341 398.144,722.674 426.5,710C 550.322,653.113 661.322,577.779 759.5,484C 767.005,475.662 774.672,467.495 782.5,459.5C 798.986,440.512 814.153,420.512 828,399.5C 837.735,383.698 844.401,366.698 848,348.5C 849.397,337.821 848.231,327.488 844.5,317.5C 838.653,306.49 829.986,298.324 818.5,293C 801.158,286.412 783.158,283.079 764.5,283C 765.416,282.722 766.082,282.222 766.5,281.5 Z"/></g>
<g><path style="opacity:0.345" fill="#244e9a" d="M 850.5,284.5 C 858.077,284.696 865.411,285.696 872.5,287.5C 864.909,287.415 857.576,286.415 850.5,284.5 Z"/></g>
<g><path style="opacity:0.408" fill="#224c96" d="M 878.5,288.5 C 887.127,289.292 895.46,290.959 903.5,293.5C 894.866,292.707 886.533,291.04 878.5,288.5 Z"/></g>
<g><path style="opacity:0.376" fill="#234d97" d="M 903.5,293.5 C 906.727,293.676 909.727,294.343 912.5,295.5C 909.171,295.785 906.171,295.118 903.5,293.5 Z"/></g>
<g><path style="opacity:0.71" fill="#224b95" d="M 950.5,306.5 C 953.542,306.733 956.208,307.733 958.5,309.5C 955.458,309.267 952.792,308.267 950.5,306.5 Z"/></g>
<g><path style="opacity:0.251" fill="#214b95" d="M 958.5,309.5 C 964.285,310.536 969.618,312.536 974.5,315.5C 968.871,314.071 963.537,312.071 958.5,309.5 Z"/></g>
<g><path style="opacity:0.993" fill="#437bdd" d="M 657.5,365.5 C 651.749,376.762 644.582,387.095 636,396.5C 574.256,459.474 502.422,507.641 420.5,541C 405.232,546.592 389.565,550.425 373.5,552.5C 360.485,551.811 356.652,545.477 362,533.5C 369.861,519.088 378.694,505.421 388.5,492.5C 395.896,484.043 402.562,475.043 408.5,465.5C 410.914,464.089 412.581,462.089 413.5,459.5C 416.243,457.761 418.243,455.427 419.5,452.5C 422.903,450.1 425.57,447.1 427.5,443.5C 427.5,442.833 427.833,442.5 428.5,442.5C 442.527,428.806 456.527,415.139 470.5,401.5C 474.878,398.641 478.878,395.308 482.5,391.5C 483.376,391.369 484.043,391.702 484.5,392.5C 482.455,394.759 480.789,397.259 479.5,400C 479.759,401.261 480.426,402.261 481.5,403C 485.5,403.667 489.5,403.667 493.5,403C 516.864,395.32 538.197,383.987 557.5,369C 568.486,357.667 580.819,348 594.5,340C 610.619,332.052 627.619,328.719 645.5,330C 653.502,331.567 659.002,336.067 662,343.5C 662.632,351.248 661.132,358.582 657.5,365.5 Z"/></g>
<g><path style="opacity:0.961" fill="#26519e" d="M 482.5,391.5 C 478.878,395.308 474.878,398.641 470.5,401.5C 473.752,397.216 477.752,393.882 482.5,391.5 Z"/></g>
<g><path style="opacity:0.977" fill="#447cde" d="M 2919.5,409.5 C 2923.91,409.021 2928.08,409.688 2932,411.5C 2929.71,431.93 2926.54,452.263 2922.5,472.5C 2951.04,471.616 2979.54,469.95 3008,467.5C 3011.5,467.667 3015,467.833 3018.5,468C 3021.01,472.843 3020.84,477.676 3018,482.5C 3013.89,490.579 3008.05,497.079 3000.5,502C 2995.83,502.667 2991.17,502.667 2986.5,502C 2964.2,498.948 2941.87,496.448 2919.5,494.5C 2906.37,561.134 2894.37,627.968 2883.5,695C 2884.37,719.292 2897.03,731.125 2921.5,730.5C 2937.39,729.927 2952.05,725.427 2965.5,717C 2973.77,711.284 2981.94,705.45 2990,699.5C 2994.18,700.665 2995.84,703.331 2995,707.5C 2973.75,730.371 2948.91,748.204 2920.5,761C 2895.46,770.913 2870.46,770.913 2845.5,761C 2829.81,750.461 2822.48,735.628 2823.5,716.5C 2823.67,710.472 2824.17,704.472 2825,698.5C 2834.87,643.477 2844.87,588.477 2855,533.5C 2857.7,521.964 2858.7,510.297 2858,498.5C 2856.86,493.36 2853.69,490.193 2848.5,489C 2841.77,488.152 2835.11,487.152 2828.5,486C 2827.05,482.507 2827.38,479.174 2829.5,476C 2849.6,475.968 2867.6,469.968 2883.5,458C 2898.8,444.211 2910.8,428.044 2919.5,409.5 Z"/></g>
<g><path style="opacity:0.995" fill="#1e468d" d="M 1033.5,416.5 C 1062.19,416.111 1090.19,419.611 1117.5,427C 1139.43,433.162 1157.76,444.662 1172.5,461.5C 1190.28,489.189 1195.45,519.189 1188,551.5C 1184.49,566.874 1179.32,581.54 1172.5,595.5C 1151.63,590.954 1130.47,588.954 1109,589.5C 1031.67,591.471 955.839,603.138 881.5,624.5C 919.055,589.453 953.555,551.787 985,511.5C 1007,482.829 1023.17,451.162 1033.5,416.5 Z"/></g>
<g><path style="opacity:0.958" fill="#447cde" d="M 137.5,422.5 C 140.157,422.162 142.49,422.829 144.5,424.5C 156.616,445.067 170.449,464.4 186,482.5C 200.793,500.295 215.96,517.795 231.5,535C 234.511,536.628 237.344,536.128 240,533.5C 254.894,515.267 268.228,495.934 280,475.5C 284.245,470.107 288.911,469.44 294,473.5C 296.534,482.714 295.201,491.381 290,499.5C 269.381,523.41 250.714,548.744 234,575.5C 230.615,580.562 225.948,583.562 220,584.5C 218.188,584.507 216.688,583.84 215.5,582.5C 197.643,559.136 178.477,536.802 158,515.5C 143,497.833 128,480.167 113,462.5C 111.987,454.885 113.654,447.885 118,441.5C 122.435,432.897 128.935,426.563 137.5,422.5 Z"/></g>
<g><path style="opacity:1" fill="#2956a5" d="M 470.5,401.5 C 456.527,415.139 442.527,428.806 428.5,442.5C 438.577,430.92 449.243,419.753 460.5,409C 463.729,406.259 467.062,403.759 470.5,401.5 Z"/></g>
<g><path style="opacity:0.976" fill="#447cde" d="M 2415.5,448.5 C 2422.03,448.272 2424.2,451.272 2422,457.5C 2406.06,541.871 2390.89,626.371 2376.5,711C 2376.87,716.043 2378.03,720.876 2380,725.5C 2384.51,729.796 2389.68,730.63 2395.5,728C 2409.22,720.959 2421.22,711.626 2431.5,700C 2438.25,699.407 2440.41,702.24 2438,708.5C 2422.41,726.761 2404.91,742.928 2385.5,757C 2373.78,764.096 2361.12,767.096 2347.5,766C 2330.81,763.304 2321.64,753.47 2320,736.5C 2319.33,726.167 2319.33,715.833 2320,705.5C 2323.56,683.482 2326.89,661.482 2330,639.5C 2309.32,682.517 2280.15,718.683 2242.5,748C 2226.58,759.31 2208.91,766.31 2189.5,769C 2155.7,771.524 2136.53,756.024 2132,722.5C 2131.19,690.199 2137.19,659.199 2150,629.5C 2173.59,574.803 2208.42,528.636 2254.5,491C 2268.14,480.708 2282.81,472.041 2298.5,465C 2324.06,454.171 2349.73,453.837 2375.5,464C 2381.44,467.217 2386.94,471.051 2392,475.5C 2400.55,469.058 2407.22,461.058 2412,451.5C 2413.15,450.364 2414.31,449.364 2415.5,448.5 Z M 2303.5,490.5 C 2325.1,490.539 2338.93,500.872 2345,521.5C 2347.88,533.087 2348.22,544.753 2346,556.5C 2334.8,609.401 2310.64,655.234 2273.5,694C 2263.84,703.325 2252.84,710.658 2240.5,716C 2213.99,724.327 2198.16,714.827 2193,687.5C 2190.31,626.918 2207.64,572.918 2245,525.5C 2255.84,512.984 2268.67,503.151 2283.5,496C 2290.13,493.513 2296.8,491.679 2303.5,490.5 Z"/></g>
<g><path style="opacity:0.839" fill="#244e9a" d="M 427.5,443.5 C 425.57,447.1 422.903,450.1 419.5,452.5C 421.43,448.9 424.097,445.9 427.5,443.5 Z"/></g>
<g><path style="opacity:0.957" fill="#25509c" d="M 419.5,452.5 C 418.243,455.427 416.243,457.761 413.5,459.5C 414.757,456.573 416.757,454.239 419.5,452.5 Z"/></g>
<g><path style="opacity:0.975" fill="#447cde" d="M 2057.5,456.5 C 2074.21,455.269 2090.54,457.102 2106.5,462C 2123.67,469.16 2130.83,481.993 2128,500.5C 2124.29,516.411 2116.13,529.577 2103.5,540C 2083.85,555.664 2062.18,567.997 2038.5,577C 2011.11,587.181 1983.11,595.181 1954.5,601C 1949.07,630.605 1950.91,659.772 1960,688.5C 1974.13,723.271 1999.96,739.105 2037.5,736C 2060.56,733.879 2081.39,726.046 2100,712.5C 2103.4,713.062 2105.23,715.062 2105.5,718.5C 2067.08,756.589 2020.74,772.756 1966.5,767C 1928.1,759.606 1903.27,737.106 1892,699.5C 1878.54,631.006 1894.87,570.673 1941,518.5C 1972.09,483.206 2010.92,462.539 2057.5,456.5 Z M 2031.5,477.5 C 2049.28,477.367 2059.28,486.034 2061.5,503.5C 2059.03,529.953 2046.37,549.786 2023.5,563C 2002.39,574.556 1980.06,582.723 1956.5,587.5C 1961.37,554.711 1973.53,525.045 1993,498.5C 2003.16,486.343 2015.99,479.343 2031.5,477.5 Z"/></g>
<g><path style="opacity:0.985" fill="#447cde" d="M 3275.5,458.5 C 3299.91,456.951 3313.74,468.285 3317,492.5C 3319.23,517.11 3316.23,541.11 3308,564.5C 3284.35,632.139 3253.01,695.805 3214,755.5C 3188.32,795.845 3160.32,834.511 3130,871.5C 3122.83,879.333 3115.67,887.167 3108.5,895C 3129.17,889.142 3150.34,885.975 3172,885.5C 3231.61,887.628 3278.28,912.961 3312,961.5C 3335.67,1002.87 3343.84,1047.2 3336.5,1094.5C 3254.5,1094.17 3172.5,1094.5 3090.5,1095.5C 3102.31,1132.52 3127.81,1151.52 3167,1152.5C 3198.14,1152.19 3221.64,1138.86 3237.5,1112.5C 3269.17,1111.17 3300.83,1111.17 3332.5,1112.5C 3306.29,1192.18 3251.13,1233.18 3167,1235.5C 3092.78,1234.59 3040.45,1200.59 3010,1133.5C 2994.92,1089.59 2993.59,1045.25 3006,1000.5C 3009.81,988.54 3014.98,977.207 3021.5,966.5C 3021,966.167 3020.5,965.833 3020,965.5C 2999.29,975.507 2979.12,974.674 2959.5,963C 2955,959.16 2952.16,954.327 2951,948.5C 2946.99,917.855 2960.32,901.855 2991,900.5C 3004.55,901.008 3017.71,903.508 3030.5,908C 3046.92,912.597 3062.25,910.264 3076.5,901C 3086.89,893.612 3096.39,885.112 3105,875.5C 3113.67,864.833 3122.33,854.167 3131,843.5C 3132.48,789.093 3131.15,734.76 3127,680.5C 3124.07,638.925 3116.4,598.259 3104,558.5C 3098.86,541.879 3090.86,526.879 3080,513.5C 3060.36,494.423 3041.36,495.089 3023,515.5C 3020.32,520.171 3016.98,524.171 3013,527.5C 3009.88,527.255 3007.71,525.755 3006.5,523C 3021.49,490.014 3046.49,469.014 3081.5,460C 3098.93,457.891 3113.93,462.891 3126.5,475C 3146.46,498.41 3159.96,525.243 3167,555.5C 3176.82,593.228 3182.82,631.561 3185,670.5C 3186.57,701.501 3186.9,732.501 3186,763.5C 3211.88,723.08 3235.22,681.08 3256,637.5C 3263.16,620.847 3267.83,603.513 3270,585.5C 3270.76,571.318 3268.43,557.652 3263,544.5C 3257.59,533.343 3251.92,522.343 3246,511.5C 3240.76,497.963 3241.76,484.963 3249,472.5C 3256.04,464.234 3264.87,459.567 3275.5,458.5 Z M 3157.5,969.5 C 3192.81,966.906 3219.65,980.572 3238,1010.5C 3240.07,1013.97 3241.57,1017.64 3242.5,1021.5C 3192.17,1021.67 3141.83,1021.5 3091.5,1021C 3104.02,991.643 3126.02,974.476 3157.5,969.5 Z"/></g>
<g><path style="opacity:0.992" fill="#1e468d" d="M 782.5,459.5 C 774.672,467.495 767.005,475.662 759.5,484C 661.322,577.779 550.322,653.113 426.5,710C 398.144,722.674 368.811,732.341 338.5,739C 330.5,739.667 322.5,739.667 314.5,739C 306.906,737.582 303.239,733.082 303.5,725.5C 304.146,721.203 305.646,717.203 308,713.5C 323.5,692.667 341.667,674.5 362.5,659C 422.222,616.449 485.555,579.449 552.5,548C 626.891,512.64 703.557,483.14 782.5,459.5 Z"/></g>
<g><path style="opacity:0.977" fill="#447cde" d="M 2536.5,459.5 C 2552.17,456.993 2564.67,461.993 2574,474.5C 2575.73,478.363 2577.07,482.363 2578,486.5C 2578.82,497.539 2578.49,508.539 2577,519.5C 2567.67,567.5 2558.33,615.5 2549,663.5C 2545.69,678.508 2545.35,693.508 2548,708.5C 2554.39,727.61 2567.22,733.777 2586.5,727C 2602.43,718.739 2615.6,707.239 2626,692.5C 2649.59,655.976 2667.26,616.642 2679,574.5C 2688.53,540.184 2696.53,505.518 2703,470.5C 2708.82,464.443 2715.99,461.276 2724.5,461C 2735.22,460.125 2745.88,460.459 2756.5,462C 2758.29,462.785 2759.79,463.951 2761,465.5C 2745.21,546.573 2730.38,627.906 2716.5,709.5C 2716.76,715.514 2718.26,721.18 2721,726.5C 2725.92,730.775 2731.42,731.608 2737.5,729C 2752.85,721.649 2765.85,711.316 2776.5,698C 2782.33,697.167 2784.83,699.667 2784,705.5C 2770.83,721.333 2756.33,735.833 2740.5,749C 2721.42,763.772 2700.08,768.772 2676.5,764C 2665.85,758.55 2660.35,749.717 2660,737.5C 2659.33,730.167 2659.33,722.833 2660,715.5C 2664.46,686.732 2669.13,658.065 2674,629.5C 2659.86,667.477 2639.86,701.81 2614,732.5C 2600.09,748.076 2583.26,759.242 2563.5,766C 2546.23,771.191 2529.23,770.524 2512.5,764C 2499.39,756.643 2491.56,745.477 2489,730.5C 2486.88,713.459 2487.22,696.459 2490,679.5C 2499.8,630.191 2509.46,580.858 2519,531.5C 2520.33,523.536 2520.66,515.536 2520,507.5C 2518.1,498.303 2512.6,494.803 2503.5,497C 2497.07,499.105 2491.41,502.439 2486.5,507C 2479.5,513.333 2472.5,519.667 2465.5,526C 2461.13,528.318 2458.46,526.985 2457.5,522C 2472.12,502.047 2489.45,484.714 2509.5,470C 2518.05,464.99 2527.05,461.49 2536.5,459.5 Z"/></g>
<g><path style="opacity:0.769" fill="#244f9b" d="M 413.5,459.5 C 412.581,462.089 410.914,464.089 408.5,465.5C 409.419,462.911 411.086,460.911 413.5,459.5 Z"/></g>
<g><path style="opacity:0.997" fill="#437bdd" d="M 1172.5,461.5 C 1223.02,519.867 1257.86,586.867 1277,662.5C 1281.08,696.357 1275.75,728.69 1261,759.5C 1254.73,772.377 1248.23,785.043 1241.5,797.5C 1209.3,844.909 1172.3,888.742 1130.5,929C 1109.27,948.403 1087.94,967.569 1066.5,986.5C 966.333,1069.63 857.333,1139.8 739.5,1197C 707.052,1212.37 673.386,1224.37 638.5,1233C 626.592,1235.29 614.592,1235.95 602.5,1235C 567.81,1221.05 535.81,1202.88 506.5,1180.5C 505.415,1178.41 503.749,1177.08 501.5,1176.5C 492.775,1170.62 484.441,1164.12 476.5,1157C 462.253,1143.92 448.586,1130.42 435.5,1116.5C 444.693,1122.05 454.693,1123.88 465.5,1122C 486.642,1118.18 507.309,1112.51 527.5,1105C 574.561,1086.3 620.228,1064.64 664.5,1040C 770.899,980.322 871.232,911.988 965.5,835C 974.661,827.671 983.327,819.837 991.5,811.5C 1039.27,770.899 1082.77,726.233 1122,677.5C 1141.86,652.116 1158.69,624.783 1172.5,595.5C 1179.32,581.54 1184.49,566.874 1188,551.5C 1195.45,519.189 1190.28,489.189 1172.5,461.5 Z"/></g>
<g><path style="opacity:0.949" fill="#234d97" d="M 408.5,465.5 C 402.562,475.043 395.896,484.043 388.5,492.5C 389.723,489.726 391.223,487.059 393,484.5C 398.031,477.978 403.197,471.644 408.5,465.5 Z"/></g>
<g><path style="opacity:0.957" fill="#447cde" d="M 70.5,518.5 C 74.0071,517.994 77.1737,518.66 80,520.5C 82.9402,529.698 81.2735,538.032 75,545.5C 46.4975,574.337 33.8309,609.004 37,649.5C 45.5005,688.669 69.5005,711.336 109,717.5C 119.514,716.656 129.014,713.156 137.5,707C 158.363,686.444 171.196,661.611 176,632.5C 182.097,618.932 187.097,619.265 191,633.5C 192.258,643.21 190.924,652.543 187,661.5C 176.952,688.939 163.285,714.272 146,737.5C 120.588,765.597 91.0878,770.764 57.5,753C 31.1627,736.852 15.9961,713.352 12,682.5C 8.61465,651.863 12.6147,622.196 24,593.5C 32.8251,570.175 44.4918,548.509 59,528.5C 62.4351,524.555 66.2685,521.222 70.5,518.5 Z"/></g>
<g><path style="opacity:0.995" fill="#1e468d" d="M 1241.5,797.5 C 1269.42,809.463 1283.42,830.796 1283.5,861.5C 1282.78,868.836 1282.12,876.169 1281.5,883.5C 1265.48,930.467 1240.48,971.8 1206.5,1007.5C 1201.01,1000.24 1193.68,995.743 1184.5,994C 1145.62,983.648 1106.29,981.148 1066.5,986.5C 1087.94,967.569 1109.27,948.403 1130.5,929C 1172.3,888.742 1209.3,844.909 1241.5,797.5 Z"/></g>
<g><path style="opacity:0.992" fill="#1e468d" d="M 991.5,811.5 C 983.327,819.837 974.661,827.671 965.5,835C 871.232,911.988 770.899,980.322 664.5,1040C 620.228,1064.64 574.561,1086.3 527.5,1105C 507.309,1112.51 486.642,1118.18 465.5,1122C 454.693,1123.88 444.693,1122.05 435.5,1116.5C 434.778,1116.08 434.278,1115.42 434,1114.5C 433.019,1106.09 435.019,1098.43 440,1091.5C 449.393,1079.1 459.893,1067.6 471.5,1057C 515.838,1021.02 563.171,989.354 613.5,962C 718.149,904.115 827.816,858.115 942.5,824C 958.729,819.36 975.062,815.193 991.5,811.5 Z"/></g>
<g><path style="opacity:0.989" fill="#447cde" d="M 3796.5,889.5 C 3796.5,917.167 3796.5,944.833 3796.5,972.5C 3774.17,972.5 3751.83,972.5 3729.5,972.5C 3729.33,1018.5 3729.5,1064.5 3730,1110.5C 3730.05,1123 3734.55,1133.5 3743.5,1142C 3746.8,1144.43 3750.46,1146.1 3754.5,1147C 3768.1,1148.92 3781.76,1149.75 3795.5,1149.5C 3795.5,1176.83 3795.5,1204.17 3795.5,1231.5C 3770.99,1232.56 3746.66,1231.06 3722.5,1227C 3683.84,1218.34 3658.68,1195.17 3647,1157.5C 3644.31,1146.99 3642.64,1136.33 3642,1125.5C 3641.5,1074.5 3641.33,1023.5 3641.5,972.5C 3627.83,972.5 3614.17,972.5 3600.5,972.5C 3600.5,944.833 3600.5,917.167 3600.5,889.5C 3614.17,889.5 3627.83,889.5 3641.5,889.5C 3641.5,865.5 3641.5,841.5 3641.5,817.5C 3670.83,817.5 3700.17,817.5 3729.5,817.5C 3729.5,841.5 3729.5,865.5 3729.5,889.5C 3751.83,889.5 3774.17,889.5 3796.5,889.5 Z"/></g>
<g><path style="opacity:0.991" fill="#447cde" d="M 3535.5,884.5 C 3546.17,884.5 3556.83,884.5 3567.5,884.5C 3567.5,914.5 3567.5,944.5 3567.5,974.5C 3552.5,974.333 3537.5,974.5 3522.5,975C 3489.8,980.185 3471.96,999.352 3469,1032.5C 3468.5,1098.83 3468.33,1165.17 3468.5,1231.5C 3439.17,1231.5 3409.83,1231.5 3380.5,1231.5C 3380.5,1117.83 3380.5,1004.17 3380.5,890.5C 3409.83,890.5 3439.17,890.5 3468.5,890.5C 3468.33,897.841 3468.5,905.174 3469,912.5C 3488.48,896.673 3510.65,887.339 3535.5,884.5 Z"/></g>
<g><path style="opacity:0.989" fill="#447cde" d="M 2070.5,885.5 C 2123.76,885.056 2168.26,904.39 2204,943.5C 2227.39,972.652 2240.39,1005.99 2243,1043.5C 2243.83,1060.55 2243.33,1077.55 2241.5,1094.5C 2159.5,1094.17 2077.5,1094.5 1995.5,1095.5C 2007.31,1132.52 2032.81,1151.52 2072,1152.5C 2103.14,1152.19 2126.64,1138.86 2142.5,1112.5C 2174.17,1111.17 2205.83,1111.17 2237.5,1112.5C 2211.3,1192.17 2156.13,1233.17 2072,1235.5C 2001.08,1235.06 1949.75,1203.4 1918,1140.5C 1900.86,1097.17 1897.86,1052.83 1909,1007.5C 1929.01,942.158 1972.51,902.658 2039.5,889C 2049.94,887.459 2060.28,886.292 2070.5,885.5 Z M 2062.5,969.5 C 2103.11,966.965 2131.78,984.131 2148.5,1021C 2097.83,1021.67 2047.17,1021.67 1996.5,1021C 2009.02,991.643 2031.02,974.476 2062.5,969.5 Z"/></g>
<g><path style="opacity:0.992" fill="#447cde" d="M 2705.5,1368.5 C 2676.5,1368.5 2647.5,1368.5 2618.5,1368.5C 2618.5,1209.17 2618.5,1049.83 2618.5,890.5C 2647.5,890.5 2676.5,890.5 2705.5,890.5C 2705.33,898.174 2705.5,905.841 2706,913.5C 2724.68,899.935 2745.51,891.435 2768.5,888C 2822.13,880.482 2869.13,894.482 2909.5,930C 2947.91,971.904 2964.41,1021.4 2959,1078.5C 2955.35,1128.29 2934.85,1169.46 2897.5,1202C 2851.59,1234.82 2801.26,1243.82 2746.5,1229C 2731.52,1224.93 2718.02,1218.09 2706,1208.5C 2705.5,1261.83 2705.33,1315.17 2705.5,1368.5 Z M 2777.5,969.5 C 2829.82,966.732 2860.66,991.065 2870,1042.5C 2873.93,1069.96 2868.93,1095.62 2855,1119.5C 2841.89,1138.57 2823.72,1149.4 2800.5,1152C 2759.28,1155.65 2730.11,1138.82 2713,1101.5C 2701.59,1068.76 2703.92,1037.09 2720,1006.5C 2733.59,985.458 2752.75,973.125 2777.5,969.5 Z"/></g>
<g><path style="opacity:0.988" fill="#447cde" d="M 2252.5,890.5 C 2286.5,890.333 2320.5,890.5 2354.5,891C 2374.29,921.415 2393.96,951.915 2413.5,982.5C 2433,952.156 2452.33,921.656 2471.5,891C 2504.51,890.167 2537.51,890.333 2570.5,891.5C 2534.5,947.5 2498.5,1003.5 2462.5,1059.5C 2499.08,1116.33 2535.42,1173.33 2571.5,1230.5C 2537.5,1231.67 2503.5,1231.83 2469.5,1231C 2449.46,1199.75 2429.29,1168.58 2409,1137.5C 2389.88,1168.92 2370.38,1200.09 2350.5,1231C 2317.17,1231.67 2283.83,1231.67 2250.5,1231C 2286.92,1174.16 2323.58,1117.5 2360.5,1061C 2324.1,1004.36 2288.1,947.53 2252.5,890.5 Z"/></g>
<g><path style="opacity:0.99" fill="#437bdd" d="M 1281.5,883.5 C 1243.24,1045.24 1149.24,1161.74 999.5,1233C 935.837,1261.17 869.17,1275.33 799.5,1275.5C 825.371,1269.93 850.371,1261.43 874.5,1250C 930.914,1223.31 984.58,1192.31 1035.5,1157C 1043.82,1151.04 1051.82,1144.87 1059.5,1138.5C 1113.69,1101 1162.69,1057.33 1206.5,1007.5C 1240.48,971.8 1265.48,930.467 1281.5,883.5 Z"/></g>
<g><path style="opacity:0.986" fill="#1e468d" d="M 1059.5,1138.5 C 1051.82,1144.87 1043.82,1151.04 1035.5,1157C 984.58,1192.31 930.914,1223.31 874.5,1250C 850.371,1261.43 825.371,1269.93 799.5,1275.5C 781.53,1276.05 777.697,1269.05 788,1254.5C 799.282,1242.88 811.448,1232.38 824.5,1223C 878.821,1186.35 937.821,1159.68 1001.5,1143C 1020.57,1137.86 1039.91,1136.36 1059.5,1138.5 Z"/></g>
<g><path style="opacity:0.592" fill="#25509d" d="M 501.5,1176.5 C 503.749,1177.08 505.415,1178.41 506.5,1180.5C 504.251,1179.92 502.585,1178.59 501.5,1176.5 Z"/></g>
</svg>
