<svg width="1048" height="206" viewBox="0 0 1048 206" fill="none" xmlns="http://www.w3.org/2000/svg">
<path d="M1047.5 103C1047.5 109.926 1043.93 116.746 1037.01 123.398C1030.08 130.049 1019.84 136.489 1006.61 142.639C980.148 154.937 941.824 166.025 894.427 175.341C799.643 193.973 668.676 205.5 524 205.5C379.324 205.5 248.357 193.973 153.572 175.341C106.176 166.025 67.852 154.937 41.3892 142.639C28.1565 136.489 17.9167 130.049 10.9922 123.398C4.06812 116.746 0.5 109.926 0.5 103C0.5 96.0744 4.06812 89.2537 10.9922 82.6025C17.9167 75.9509 28.1565 69.5109 41.3892 63.3612C67.852 51.0631 106.176 39.9751 153.572 30.6586C248.357 12.0272 379.324 0.5 524 0.5C668.676 0.5 799.643 12.0272 894.427 30.6586C941.824 39.9751 980.148 51.0631 1006.61 63.3612C1019.84 69.5109 1030.08 75.9509 1037.01 82.6025C1043.93 89.2537 1047.5 96.0744 1047.5 103Z" stroke="url(#paint0_linear_348_343)"/>
<defs>
<linearGradient id="paint0_linear_348_343" x1="504.522" y1="206" x2="504.522" y2="-33.0128" gradientUnits="userSpaceOnUse">
<stop stop-color="#679DFF"/>
<stop offset="1" stop-color="#FF8AE5"/>
</linearGradient>
</defs>
</svg>
